<?xml version="1.0" encoding="UTF-8" standalone="no"?>
<svg width="18px" height="18px" viewBox="0 0 48 48" version="1.1" xmlns="http://www.w3.org/2000/svg">
    <g stroke="none" stroke-width="1" fill="none" fill-rule="evenodd">
        <path d="M43.611,20.083 L42,20.083 L42,20 L24,20 L24,28 L35.303,28 C33.654,32.657 29.223,36 24,36 C17.373,36 12,30.627 12,24 C12,17.373 17.373,12 24,12 C27.059,12 29.842,13.154 31.961,15.039 L37.618,9.382 C34.046,6.053 29.268,4 24,4 C12.955,4 4,12.955 4,24 C4,35.045 12.955,44 24,44 C35.045,44 44,35.045 44,24 C44,22.659 43.862,21.35 43.611,20.083 Z" fill="#FFC107"/>
        <path d="M6.306,14.691 L12.877,19.51 C14.655,15.108 18.961,12 24,12 C27.059,12 29.842,13.154 31.961,15.039 L37.618,9.382 C34.046,6.053 29.268,4 24,4 C16.318,4 9.656,8.337 6.306,14.691 Z" fill="#FF3D00"/>
        <path d="M24,44 C29.166,44 33.86,42.023 37.409,38.808 L31.219,33.57 C29.211,35.091 26.715,36 24,36 C18.798,36 14.381,32.683 12.717,28.054 L6.195,33.079 C9.505,39.556 16.227,44 24,44 Z" fill="#4CAF50"/>
        <path d="M43.611,20.083 L42,20.083 L42,20 L24,20 L24,28 L35.303,28 C34.511,30.237 33.072,32.166 31.219,33.571 C31.219,33.57 31.219,33.57 31.219,33.57 L37.409,38.808 C36.971,39.205 44,34 44,24 C44,22.659 43.862,21.35 43.611,20.083 Z" fill="#1976D2"/>
    </g>
</svg> 